{"title":"Thelma &amp; Louise(1991)MPEG-4[DaScubaDude]","uid":14611035,"size":1300050690,"categoryP":"video","categoryS":"movies","magnet":"?xt=urn:btih:987f4747c3a1a1684ad26e4fa81c784cac56c90a&amp;dn=Thelma+%26amp%3B+Louise%281991%29MPEG-4%5BDaScubaDude%5D&amp;tr=udp%3A%2F%2Ftracker.leechers-paradise.org%3A6969&amp;tr=udp%3A%2F%2Fzer0day.ch%3A1337&amp;tr=udp%3A%2F%2Fopen.demonii.com%3A1337&amp;tr=udp%3A%2F%2Ftracker.coppersurfer.tk%3A6969&amp;tr=udp%3A%2F%2Fexodus.desync.com%3A6969","seeders":0,"leechers":1,"uploader":"dascuba","files":1,"time":1463152787,"description":"Thelma &amp; Louise (1991)\r\nR | 2h 10min | Adventure, Crime, Drama | 24 May 1991 (USA)\r\nAn Arkansas waitress and a housewife shoot a rapist and take off in a '66 Thunderbird.\r\nDirector: Ridley Scott\r\nWriter: Callie Khouri\r\nStars: Susan Sarandon, Geena Davis, Harvey Keitel \r\n\r\nGeneral\r\nComplete name                            : ThelmaTHELMA_Title1.mp4\r\nFormat                                   : MPEG-4\r\nFormat profile                           : Base Media\r\nCodec ID                                 : isom (isom/iso2/avc1/mp41)\r\nFile size                                : 1.21 GiB\r\nDuration                                 : 2h 9mn\r\nOverall bit rate                         : 1 340 Kbps\r\nMovie name                               : THELMA\r\nGenre                                    : Comedy_Drama\r\nWriting application                      : Lavf54.6.100\r\n\r\nVideo\r\nID                                       : 1\r\nFormat                                   : AVC\r\nFormat/Info                              : Advanced Video Codec\r\nFormat profile                           :   \r\nFormat settings, CABAC                   : No\r\nFormat settings, ReFrames                : 6 frames\r\nFormat settings, GOP                     : M=1, N=60\r\nCodec ID                                 : avc1\r\nCodec ID/Info                            : Advanced Video Coding\r\nDuration                                 : 2h 9mn\r\nBit rate                                 : 1 205 Kbps\r\nWidth                                    : 720 pixels\r\nHeight                                   : 404 pixels\r\nDisplay aspect ratio                     : 16:9\r\nFrame rate mode                          : Constant\r\nFrame rate                               : 29.970 (30000/1001) fps\r\nColor space                              : YUV\r\nChroma subsampling                       : 4:2:0\r\nBit depth                                : 8 bits\r\nScan type                                : Progressive\r\nBits/(Pixel*Frame)                       : 0.138\r\nStream size                              : 1.09 GiB (90%)\r\n\r\nAudio\r\nID                                       : 2\r\nFormat                                   : AAC\r\nFormat/Info                              : Advanced Audio Codec\r\nFormat profile                           : LC\r\nCodec ID                                 : 40\r\nDuration                                 : 2h 9mn\r\nBit rate mode                            : Constant\r\nBit rate                                 : 128 Kbps\r\nChannel(s)                               : 2 channels\r\nChannel positions                        : Front: L R\r\nSampling rate                            : 44.1 KHz\r\nFrame rate                               : 43.066 fps (1024 spf)\r\nCompression mode                         : Lossy\r\nStream size                              : 118 MiB (10%)\r\nDefault                                  : Yes\r\nAlternate group                          : 1","torrent":{"xt":"urn:btih:987f4747c3a1a1684ad26e4fa81c784cac56c90a","amp;dn":"Thelma+%26amp%3B+Louise%281991%29MPEG-4%5BDaScubaDude%5D","amp;tr":["udp%3A%2F%2Ftracker.leechers-paradise.org%3A6969","udp%3A%2F%2Fzer0day.ch%3A1337","udp%3A%2F%2Fopen.demonii.com%3A1337","udp%3A%2F%2Ftracker.coppersurfer.tk%3A6969","udp%3A%2F%2Fexodus.desync.com%3A6969"],"infoHash":"987f4747c3a1a1684ad26e4fa81c784cac56c90a","infoHashBuffer":{"type":"Buffer","data":[152,127,71,71,195,161,161,104,74,210,110,79,168,28,120,76,172,86,201,10]},"announce":[],"urlList":[]}}